<svg width="16" height="16" viewBox="0 0 16 16" fill="none" xmlns="http://www.w3.org/2000/svg">
<path d="M10.444 2.592C10.3551 2.27753 10.166 2.0007 9.90532 1.80359C9.64467 1.60648 9.32679 1.49988 9 1.5H7C6.31333 1.5 5.73333 1.962 5.556 2.592M10.444 2.592C10.4807 2.72133 10.5 2.85867 10.5 3C10.5 3.13261 10.4473 3.25979 10.3536 3.35355C10.2598 3.44732 10.1326 3.5 10 3.5H6C5.86739 3.5 5.74022 3.44732 5.64645 3.35355C5.55268 3.25979 5.5 3.13261 5.5 3C5.5 2.85867 5.52 2.72133 5.556 2.592M10.444 2.592C10.8747 2.62467 11.3027 2.66533 11.7287 2.71467C12.462 2.8 13 3.43267 13 4.17133V13C13 13.3978 12.842 13.7794 12.5607 14.0607C12.2794 14.342 11.8978 14.5 11.5 14.5H4.5C4.10218 14.5 3.72064 14.342 3.43934 14.0607C3.15804 13.7794 3 13.3978 3 13V4.17133C3 3.43267 3.53733 2.8 4.27133 2.71467C4.69869 2.66518 5.127 2.62429 5.556 2.592" stroke="#94A3B8" stroke-width="1.5" stroke-linecap="round" stroke-linejoin="round"/>
</svg>
